<svg xmlns="http://www.w3.org/2000/svg" viewBox="0 0 168.92 38.59"><g id="Capa_2" data-name="Capa 2"><g id="Capa_1-2" data-name="Capa 1"><path d="M55.9,20.54c-.06-1.42-.14-3.14-.13-4.63h-.05c-.36,1.34-.81,2.83-1.31,4.22L52.9,24.65a.39.39,0,0,1-.36.26h-1a.38.38,0,0,1-.36-.27l-1.39-4.45c-.42-1.4-.81-2.91-1.11-4.28h0c0,1.44-.11,3.19-.2,4.69l-.22,4.08a.38.38,0,0,1-.38.36H46.72a.38.38,0,0,1-.38-.4L47,14.36a.38.38,0,0,1,.38-.35h2a.39.39,0,0,1,.36.26l1.35,4.17c.39,1.3.74,2.61,1,3.83h.05c.29-1.19.67-2.55,1.09-3.84l1.44-4.16a.36.36,0,0,1,.35-.26h2a.38.38,0,0,1,.37.36l.59,10.27a.37.37,0,0,1-.37.4H56.47a.37.37,0,0,1-.37-.36Z"/><path d="M65.92,20.15h-3.4a.37.37,0,0,0-.38.37V23a.37.37,0,0,0,.38.37h3.89a.38.38,0,0,1,.38.38v.9a.38.38,0,0,1-.38.38H60.5a.38.38,0,0,1-.37-.38V14.39A.38.38,0,0,1,60.5,14h5.66a.38.38,0,0,1,.38.38v.9a.38.38,0,0,1-.38.37H62.52a.38.38,0,0,0-.38.38v2.09a.38.38,0,0,0,.38.38h3.4a.37.37,0,0,1,.37.38v.88A.37.37,0,0,1,65.92,20.15Zm.1-8.69-1.94,1.86a.35.35,0,0,1-.26.1H62.35l1.33-1.81a.38.38,0,0,1,.3-.15Z"/><path d="M74.68,25a.4.4,0,0,1-.33-.2l-1.08-2c-.48-.85-.79-1.44-1.1-2.07h0c-.26.63-.56,1.22-1,2.07l-1,2a.37.37,0,0,1-.34.21H68.38a.38.38,0,0,1-.33-.57l2.83-4.82a.37.37,0,0,0,0-.38l-2.7-4.69A.37.37,0,0,1,68.5,14h1.43a.37.37,0,0,1,.33.2l1.09,2.08c.36.68.62,1.22.92,1.84h0c.29-.68.52-1.17.87-1.84l1.07-2.08a.37.37,0,0,1,.33-.2H76a.38.38,0,0,1,.32.57L73.54,19.2a.39.39,0,0,0,0,.39l2.9,4.88a.38.38,0,0,1-.32.57Z"/><path d="M80.29,14.39V24.66a.38.38,0,0,1-.38.38H78.65a.37.37,0,0,1-.37-.38V14.39a.37.37,0,0,1,.37-.38h1.26A.38.38,0,0,1,80.29,14.39Z"/><path d="M90.43,24.41a.37.37,0,0,1-.24.43,8.18,8.18,0,0,1-2.54.36C84.15,25.2,82,23,82,19.65a5.54,5.54,0,0,1,5.89-5.82,7.16,7.16,0,0,1,2.37.36.37.37,0,0,1,.23.45l-.25.89a.38.38,0,0,1-.47.26A5.38,5.38,0,0,0,88,15.5c-2.24,0-3.86,1.41-3.86,4.06a3.62,3.62,0,0,0,3.85,4,6.2,6.2,0,0,0,1.8-.26.38.38,0,0,1,.48.28Z"/><path d="M101.57,19.41c0,3.7-2.24,5.81-5.28,5.81s-5.07-2.38-5.07-5.61c0-3.39,2.12-5.78,5.23-5.78S101.57,16.27,101.57,19.41Zm-8.23.16c0,2.24,1.13,4,3.06,4s3-1.8,3-4.11c0-2.08-1-4-3-4S93.34,17.3,93.34,19.57Z"/><rect x="103.27" y="19.18" width="3.57" height="1.37" rx="0.23"/><path d="M114.47,20.15h-3.4a.37.37,0,0,0-.38.37V23a.37.37,0,0,0,.38.37H115a.37.37,0,0,1,.37.38v.9A.37.37,0,0,1,115,25h-5.91a.38.38,0,0,1-.37-.38V14.39a.38.38,0,0,1,.37-.38h5.66a.38.38,0,0,1,.38.38v.9a.38.38,0,0,1-.38.37h-3.64a.38.38,0,0,0-.38.38v2.09a.38.38,0,0,0,.38.38h3.4a.37.37,0,0,1,.37.38v.88A.37.37,0,0,1,114.47,20.15Z"/><path d="M123.23,25a.4.4,0,0,1-.33-.2l-1.08-2c-.48-.85-.79-1.44-1.1-2.07h0c-.26.63-.56,1.22-1,2.07l-1,2a.37.37,0,0,1-.34.21h-1.41a.38.38,0,0,1-.33-.57l2.83-4.82a.37.37,0,0,0,0-.38l-2.7-4.69a.37.37,0,0,1,.32-.57h1.43a.37.37,0,0,1,.33.2l1.09,2.08c.36.68.62,1.22.92,1.84h0c.3-.68.52-1.17.87-1.84l1.07-2.08a.37.37,0,0,1,.33-.2h1.42a.38.38,0,0,1,.32.57l-2.77,4.62a.39.39,0,0,0,0,.39L125,24.47a.38.38,0,0,1-.33.57Z"/><path d="M126.82,14.48a.36.36,0,0,1,.32-.37,17.72,17.72,0,0,1,2.76-.18,5,5,0,0,1,3.26.9,3.13,3.13,0,0,1,1.07,2.44,3.35,3.35,0,0,1-.94,2.5A4.91,4.91,0,0,1,129.8,21a5.48,5.48,0,0,1-1-.07v3.78a.38.38,0,0,1-.38.38H127.2a.38.38,0,0,1-.38-.38Zm2,4.82a4.38,4.38,0,0,0,1,.08c1.51,0,2.42-.74,2.42-2s-.85-1.88-2.24-1.88a5.4,5.4,0,0,0-1.16.1Z"/><path d="M141.76,20.15h-3.4a.37.37,0,0,0-.38.37V23a.37.37,0,0,0,.38.37h3.89a.38.38,0,0,1,.38.38v.9a.38.38,0,0,1-.38.38h-5.9a.38.38,0,0,1-.38-.38V14.39a.38.38,0,0,1,.38-.38H142a.37.37,0,0,1,.37.38v.9a.37.37,0,0,1-.37.37h-3.65A.38.38,0,0,0,138,16v2.09a.38.38,0,0,0,.38.38h3.4a.38.38,0,0,1,.38.38v.88A.38.38,0,0,1,141.76,20.15Z"/><path d="M144.4,14.48a.38.38,0,0,1,.31-.37,19.49,19.49,0,0,1,2.73-.18,5.09,5.09,0,0,1,3.4.88,2.79,2.79,0,0,1,.95,2.21,3,3,0,0,1-2,2.77v0A2.81,2.81,0,0,1,151.33,22c.26,1,.49,2,.68,2.59a.37.37,0,0,1-.36.49h-1.27a.39.39,0,0,1-.36-.25,21.18,21.18,0,0,1-.63-2.35c-.31-1.44-.84-1.9-2-1.93h-1v4.15A.37.37,0,0,1,146,25h-1.25a.38.38,0,0,1-.37-.38Zm2,4.55h1.2c1.36,0,2.21-.72,2.21-1.81s-.85-1.77-2.16-1.77a5.77,5.77,0,0,0-1.25.1Z"/><path d="M155.52,15.7h-2.38a.38.38,0,0,1-.38-.38v-.93a.38.38,0,0,1,.38-.38h7.57a.38.38,0,0,1,.38.38v.93a.38.38,0,0,1-.38.38h-2.42a.37.37,0,0,0-.38.37v8.59a.38.38,0,0,1-.37.38h-1.26a.38.38,0,0,1-.38-.38V16.07A.37.37,0,0,0,155.52,15.7Z"/><path d="M162.08,23.29a.38.38,0,0,1,.51-.25,5.55,5.55,0,0,0,2.28.51c1.29,0,2-.61,2-1.51s-.56-1.32-2-1.83c-1.82-.65-3-1.62-3-3.2,0-1.8,1.51-3.18,3.89-3.18a6.27,6.27,0,0,1,2.36.42.37.37,0,0,1,.2.45l-.27.89a.38.38,0,0,1-.51.24,4.71,4.71,0,0,0-1.81-.35c-1.28,0-1.83.69-1.83,1.33,0,.85.64,1.24,2.11,1.81,1.91.72,2.84,1.69,2.84,3.28,0,1.76-1.34,3.3-4.18,3.3a7,7,0,0,1-2.69-.54.37.37,0,0,1-.21-.44Z"/><text transform="translate(51.38 36.35)" style="font-size:9px;fill:#ffbf54;font-family:MyriadPro-Semibold, Myriad Pro;font-weight:600;letter-spacing:0.003960503472222222em">B<tspan x="5.22" y="0" style="letter-spacing:0.029025607638888888em">Y INHOUSE OP</tspan><tspan x="64.76" y="0" style="letter-spacing:-0.011067708333333334em"> </tspan><tspan x="66.53" y="0" style="letter-spacing:0.029079861111111112em">TURISTI</tspan><tspan x="98.34" y="0" style="letter-spacing:0.03602430555555555em">C</tspan><tspan x="103.96" y="0" style="letter-spacing:0.028971354166666668em">A</tspan></text><path d="M10.35,6.06a8.48,8.48,0,0,0,.94,5.88,48.08,48.08,0,0,0,3.91,5.64c.69.92.77,1-.06,1.85-.63.64-1.27,1.27-1.9,1.9a10.12,10.12,0,0,0-3,6.64c-.34,5.14,4.85,9.12,9.34,8.33,6.26-1.09,8.1-6.69,6.12-11.44a18,18,0,0,0-4.19-5.66c-1.05-1-1-1.1,0-2.12l.76-.76a11.74,11.74,0,0,0,3.85-6.2,9,9,0,0,0,0-4.25,7.91,7.91,0,0,0-8-5.87A7.61,7.61,0,0,0,10.35,6.06Zm8.77,14.82a14.5,14.5,0,0,1,1.81,1.87,17.49,17.49,0,0,1,2.21,4,4.87,4.87,0,0,1-5.71,6.29,4.88,4.88,0,0,1-4.08-4.95A6.1,6.1,0,0,1,15,23.92c.88-1.08,1.9-2.06,2.87-3.08C18.27,20.36,18.69,20.43,19.12,20.88Zm0-17.66a5.4,5.4,0,0,1,2.51,1.25,5.15,5.15,0,0,1,1.79,3,5.4,5.4,0,0,1-.91,3.82,21.57,21.57,0,0,1-3,3.43c-.65.65-.95,1.06-1.28,1.07s-.63-.26-1.38-1.18c-.89-1.11-1.39-1.85-1.39-1.85-1.77-2.65-1.9-2.9-2-3.36a4.64,4.64,0,0,1-.19-2.23,4.74,4.74,0,0,1,.93-2,4.89,4.89,0,0,1,1.57-1.46A5,5,0,0,1,19.1,3.22Z" style="fill:#a2bb36"/><path d="M30.34,10.18a8.48,8.48,0,0,0-5.88.94A48.08,48.08,0,0,0,18.82,15c-.91.69-1,.77-1.85-.06-.64-.63-1.27-1.27-1.9-1.91a10.11,10.11,0,0,0-6.64-3C3.29,9.75-.68,14.94.1,19.43c1.09,6.25,6.69,8.1,11.44,6.11a17.77,17.77,0,0,0,5.66-4.18c1-1.05,1.1-1,2.12,0l.76.77A11.66,11.66,0,0,0,26.28,26a8.85,8.85,0,0,0,4.25,0,7.92,7.92,0,0,0,5.87-8A7.61,7.61,0,0,0,30.34,10.18ZM15.52,19a14.5,14.5,0,0,1-1.87,1.81,18.28,18.28,0,0,1-4,2.21,4.87,4.87,0,0,1-6.29-5.71,4.9,4.9,0,0,1,5-4.09,6.11,6.11,0,0,1,4.18,1.61c1.08.88,2.06,1.9,3.08,2.87C16,18.09,16,18.52,15.52,19Zm17.66,0a5.4,5.4,0,0,1-1.25,2.51,5.2,5.2,0,0,1-3,1.79,5.4,5.4,0,0,1-3.82-.91,21.14,21.14,0,0,1-3.43-3c-.65-.64-1.06-.94-1.07-1.27s.26-.64,1.18-1.38c1.11-.89,1.85-1.39,1.85-1.39,2.65-1.77,2.9-1.9,3.36-2a4.52,4.52,0,0,1,2.23-.19,4.75,4.75,0,0,1,2,.92,5.07,5.07,0,0,1,1.46,1.58A5,5,0,0,1,33.18,18.93Z" style="fill:#d59817"/></g></g></svg>